Exact Audio Copy V0.99 prebeta 1 from 25. May 2007

EAC 抓取日志文件从21. 三月 2010, 0:01

田震 / 20世纪中华歌坛名人百集珍藏版

使用驱动器  ：PIONEER DVD-RW  DVR-115   Adapter: 0  ID: 0

读取模式     : 保护
使用精确流   : 是
废除音频缓冲 : 是
使用 C2 指针 : 否

读取偏移校正                   : 10
读取 Lead-In 和 Lead-Out       : 否
用静音填充抓取中丢失偏移的采样 : 是
去除首尾静音块                 : 否
已用接口                       : Win NT 及 2000 本地 Win32 接口

所用输出格式 : 内部 WAV 函数
样本格式     : 44.100 Hz;16 Bit;立体声


被抓轨 CD 的 TOC

     音轨 |   开始   |   长度   | 起始扇区 | 结尾扇区 
    --------------------------------------------------
       1  |  0:00.32 |  3:27.53 |      32  |   15609  
       2  |  3:28.10 |  4:04.02 |   15610  |   33911  
       3  |  7:32.12 |  3:51.25 |   33912  |   51261  
       4  | 11:23.37 |  3:53.48 |   51262  |   68784  
       5  | 15:17.10 |  4:39.17 |   68785  |   89726  
       6  | 19:56.27 |  4:44.20 |   89727  |  111046  
       7  | 24:40.47 |  3:59.45 |  111047  |  129016  
       8  | 28:40.17 |  4:16.73 |  129017  |  148289  
       9  | 32:57.15 |  4:01.72 |  148290  |  166436  
      10  | 36:59.12 |  4:06.73 |  166437  |  184959  
      11  | 41:06.10 |  5:00.35 |  184960  |  207494  
      12  | 46:06.45 |  4:49.57 |  207495  |  229226  
      13  | 50:56.27 |  3:59.30 |  229227  |  247181  


范围状态及错误

已选择范围

     文件名 E:\文件夹\20世纪中华歌坛名人百集珍藏版-田震[lwg188原创]\田震 - 20世纪中华歌坛名人百集珍藏版.wav

     峰值电平 100.0 %
     范围质量 100.0 %
     复制 CRC 78616731
     复制成功

没有错误发生

状态报告结尾
